M48
; DRILL file {KiCad 9.0.1} date 2025-04-26T11:03:30+0200
; FORMAT={-:-/ absolute / inch / decimal}
; #@! TF.CreationDate,2025-04-26T11:03:30+02:00
; #@! TF.GenerationSoftware,Kicad,Pcbnew,9.0.1
; #@! TF.FileFunction,Plated,1,2,PTH
FMAT,2
INCH
; #@! TA.AperFunction,Plated,PTH,ComponentDrill
T1C0.0295
; #@! TA.AperFunction,Plated,PTH,ComponentDrill
T2C0.0315
; #@! TA.AperFunction,Plated,PTH,ComponentDrill
T3C0.0394
; #@! TA.AperFunction,Plated,PTH,ComponentDrill
T4C0.0433
; #@! TA.AperFunction,Plated,PTH,ComponentDrill
T5C0.0472
%
G90
G05
T1
X1.725Y-2.75
X1.775Y-2.75
X1.825Y-2.75
T2
X1.55Y-2.925
X1.85Y-2.925
X2.025Y-2.825
X2.025Y-2.975
X2.1004Y-2.3004
X2.1004Y-2.4004
X2.1004Y-2.5004
X2.1004Y-2.6004
X2.2258Y-2.15
X2.3242Y-2.15
X2.325Y-1.8258
X2.325Y-1.9242
X2.4004Y-2.3004
X2.4004Y-2.4004
X2.4004Y-2.5004
X2.4004Y-2.6004
X2.425Y-2.825
X2.425Y-2.975
X2.6Y-2.2
X2.6Y-2.6
X2.625Y-2.975
X2.775Y-2.4
X2.775Y-2.8
X3.025Y-2.975
T3
X2.65Y-1.6
T4
X1.878Y-1.7
X1.878Y-1.95
X1.878Y-2.225
X1.878Y-2.45
X2.997Y-1.7
X2.997Y-2.575
X2.997Y-2.8
T5
X2.7707Y-2.2
X3.4793Y-2.2
M30
